<?xml version="1.0" encoding="UTF-8"?>
<svg xmlns="http://www.w3.org/2000/svg" viewBox="0 0 500 500" width="500" height="500">
<path d="M392 407.25C390.91 410.27 386.81 411.96 384.17 413.41C381.04 415.12 378.15 417.59 375 419.21C369.55 422 359.36 424.29 353.25 424.99C334.72 427.14 315.4 426.37 296.75 425.89C275 425.32 253.02 425.85 231.25 425.97C212.42 426.07 193.59 426.09 174.75 425.81C163.47 425.65 151.88 426.43 140.82 423.85C133.51 422.15 125.96 419.43 119.48 415.75C117.9 414.86 116.53 413.25 114.98 412.42C109.14 409.27 105.22 404.95 100.43 400.34C76.57 377.38 76.43 346.19 77.6 315.25C78.09 302.29 77.91 289.21 78.06 276.25C78.25 259.38 78.52 242.58 79.05 225.75C79.62 207.78 79.21 189.76 79.73 171.75C79.95 164.08 79.53 156.41 80.06 148.75C81.08 134 89.51 114.11 99.5 103.24C101.13 101.46 103.46 100.09 105.34 98.58C107.26 97.04 108.54 94.85 110.56 93.33C121.62 84.94 135.65 79.94 149.26 78.01C155.44 77.13 161.99 78.17 168.25 77.52C171.92 77.14 175.42 78 178.75 77.7C180.49 77.54 181.95 76.53 183.75 76.49C188.41 76.39 193.12 77.49 197.75 77.36C199.93 77.29 202.1 76.7 204.25 76.61C208.89 76.42 213.57 77.26 218.25 77.02C221.4 76.87 224.62 76.11 227.75 76.17C231.54 76.25 235.48 76.13 239.25 76.32C244.25 76.56 249.71 77.86 254.75 77.21C255.99 77.05 257.15 76.47 258.39 76.25C261.28 75.74 264.33 76.29 267.25 76.14C277.41 75.61 287.61 76.54 297.75 76.09C337.48 74.36 378.09 70.51 405.31 105.42C423.13 128.29 422.84 155.4 422.31 183.25C422.18 190.43 422.86 197.57 422.93 204.75C423.07 219.4 422.69 234.12 423.43 248.75C423.82 256.41 423.26 264.11 423.55 271.75C424.2 288.74 424.48 305.76 424.13 322.75C423.77 340.2 424.63 356.83 418.14 373.34C414.25 383.27 407.58 394.28 399.45 401.21C397.53 402.84 394.69 407.6 392 407.25ZM340.42 210C325.53 210 310.64 210 295.75 210C294.68 210.16 297.5 211.07 298.25 211C299.42 210.89 300.03 210.21 301.25 210.14C305.21 209.91 309.58 209.88 313.5 210.32C313.25 210.63 313 210.94 312.75 211.26C317.06 211.38 333.03 211.18 336.01 212.75C333.62 213.08 331.23 213.42 328.84 213.75C329.97 213.88 331.11 214.02 332.25 214.15C332.58 214.83 332.92 215.5 333.25 216.18C334.42 216.06 335.58 215.94 336.75 215.81C336.99 216.79 337.22 217.77 337.46 218.75C336.89 218.9 336.32 219.04 335.75 219.19C337.24 222.6 330.82 221.81 329.25 223.49C331.51 224.64 332.94 225.19 335.6 225.75C335.6 226.75 335.6 227.75 335.6 228.75C333.74 229.25 331.88 229.75 330.01 230.25C329.88 231.25 329.74 232.25 329.6 233.25C328.91 233.58 328.21 233.92 327.51 234.25C327.65 236.48 328.25 239.71 325.25 239.77C325.43 240.6 325.61 241.42 325.8 242.25C324.19 241.55 323.38 240.66 321.5 241.75C323.42 242.83 325.33 243.92 327.25 245C327.5 245.75 327.75 246.5 328 247.25C329.75 247.28 330.82 248.41 332.5 249.25C333.74 253.31 338.19 254.72 340.5 258.25C341.25 260.65 345.81 266.95 344.51 268.97C342.31 264.84 340.52 260.49 337.47 256.82C323.28 239.81 300.67 233.99 279.95 229.76C274.08 228.56 268.18 226.85 262.25 226.07C250.98 224.6 238.76 222.41 228.2 218.19C223.44 216.29 217.4 213.26 215.96 207.75C210.25 185.88 237.71 182.42 252.75 182.79C263.01 183.05 278.57 183.83 285.75 192.5C289.06 196.5 289.64 205.87 292.44 207.79C296.23 210.4 313.87 209.13 319.25 209.11C324.14 209.08 339.84 210.68 343.03 207.29C345.21 204.98 344.68 200.71 344.28 197.92C343.4 191.72 342.53 186.4 340.26 180.51C333.13 162.04 315.05 147.43 296.03 142.28C290.89 140.89 285.74 139.37 280.5 138.39C277.71 137.87 274.5 138.27 271.93 137.01C271.71 136.67 271.48 136.34 271.25 136C269.58 136 267.92 136 266.25 136C266.17 136.17 266.08 136.34 266 136.51C257.19 136.42 248.39 136.32 239.58 136.23C236.44 135.69 233.53 136.1 230.5 136.75C230.98 136.86 231.46 136.98 231.95 137.09C229.31 137.47 226.67 137.84 224.03 138.21C223.36 138.11 222.68 138.01 222 137.92C220.75 137.78 219.5 137.64 218.25 137.5C213.26 140.63 206.66 139.23 202 142.96C200.42 143.64 198.83 144.32 197.25 145C195.78 146.47 192.87 148.5 190.25 148C189.08 149.36 187.92 150.72 186.75 152.08C184.3 155.37 179.81 157.63 176.82 160.57C170.29 166.98 165.2 175.43 162.32 184.08C160.15 190.58 158.97 197.37 158.79 204.25C158.62 210.64 158.88 218.14 161.06 224.22C162.98 229.58 165.3 235.34 168.81 239.93C181.06 255.98 203.68 264.11 222.78 267.87C232.77 269.83 242.74 272.22 252.76 273.94C261.37 275.43 270.2 276.65 278.36 279.83C288.62 283.83 295.92 289.7 292.43 302C292.29 299.25 292.14 296.5 292 293.75C290.8 292.5 290.5 291.54 291.5 290.25C291.17 289.97 290.83 289.69 290.5 289.42C290.5 289.19 290.5 288.97 290.5 288.75C289.42 287.67 288.35 286.58 287.27 285.5C284.12 282.55 279.18 282.31 276.25 279.5C275.01 279.58 271.57 280.25 272.75 278.5C270.41 278.5 268.53 276.8 266.75 278.5C261.78 273.74 252.3 277.87 248.75 273.5C246.61 273.5 244.53 273.39 242.75 272.5C241.75 272.67 240.75 272.83 239.75 273C238 271.64 236.4 271.57 234.25 272C233.75 271.5 233.25 271 232.75 270.5C230.76 270.9 230.24 270.99 228.75 269.5C227.92 269.83 227.08 270.17 226.25 270.5C225.42 269.83 224.58 269.17 223.75 268.5C219.78 268.5 216.49 266.25 212.75 267C212.25 265.4 205.08 263.13 203.25 264C202.75 263.5 202.25 263 201.75 262.5C198.57 263.68 194.92 260.19 191.5 259.92C191.83 259.53 192.17 259.14 192.5 258.75C190.75 258 189 257.25 187.25 256.5C187.5 256.81 187.75 257.11 188 257.42C187.92 257.86 187.84 258.31 187.77 258.75C188.76 259.79 189.76 260.83 190.75 261.87C192.47 261.25 193.17 260.69 195.09 261.75C193.95 262.92 192.82 264.08 191.69 265.25C195.27 267.16 198.11 263.5 201.85 263.75C201.52 265.53 204.88 265.61 206.32 265.75C205.87 267.53 204.52 268.25 204.78 270.25C206.43 270.78 208.03 270.59 207.63 272.75C202.81 272.89 200.74 269.28 197.25 267.89C195.67 268.51 194.09 269.13 192.51 269.75C191.93 268.83 191.34 267.92 190.75 267C190.08 266.86 189.42 266.71 188.75 266.57C187.3 266.42 186.87 266.44 185.75 267.33C185.7 265.87 183.56 264.43 182.25 265.69C183.66 265.88 183.72 265.97 184.24 267.25C182.58 267.96 180.91 268.67 179.25 269.38C178.08 269.03 176.92 268.69 175.75 268.35C174.95 269.83 175.78 270.91 174.25 271.6C171.47 270.55 173.92 266 174.24 263.75C175.08 263.3 175.91 262.85 176.75 262.41C178.48 263.98 179.96 264.95 182.25 263.91C182.07 262.19 181.89 260.47 181.71 258.75C180.7 258.57 179.42 258.19 178.41 258.7C177.27 259.28 176.72 261.2 175.6 261.87C173.28 263.25 170.85 263.73 169.25 265.6C168.44 265.48 167.63 265.37 166.82 265.25C165.71 266.73 165.23 266.82 163.25 266.82C163.05 264.59 161.42 264.74 160.61 263.14C160.29 262.52 160.41 261.36 160.25 260.67C160.07 263.47 157.33 263.56 154.75 263.6C153.97 262.82 153.18 262.03 152.4 261.25C152.35 260.37 152.3 259.48 152.25 258.6C150.45 256.87 150.55 255.43 149.25 253.6C148.42 254.17 147.58 254.75 146.75 255.32C146.06 253.8 145.38 252.27 144.69 250.75C143.77 251.56 143.51 252.11 141.97 252.25C141.98 253.73 142.97 255.26 142.75 255.5C140.85 255.34 140.33 253.64 139.75 251.91C138.57 251.52 137.38 251.14 136.2 250.75C136.18 248.35 135.19 246.97 133.25 245.82C132.7 241.4 132.11 235.96 129.25 232.2C126.82 232.21 120.77 233.03 120.09 230.25C121.53 228.59 127.21 231.4 127.8 228.75C125.12 228.62 122.43 228.48 119.75 228.35C116.77 225.67 118.74 221.71 116.25 219.09C115.58 220.69 114.92 222.3 114.25 223.9C114.1 222.41 111.94 211.69 111.29 210.92C110.77 210.31 109.9 209.83 109.31 209.25C110.47 206.51 109.63 204.61 108.93 202.24C108.48 200.72 108.97 198.68 108.75 197.09C108.14 196.48 107.52 195.86 106.91 195.25C105.64 194.92 104.36 194.58 103.09 194.25C101.91 195.73 102.56 197.46 100.75 198.09C98.66 195.9 100.62 193.28 101.25 190.91C102.86 190.91 103.16 191.32 104.39 191.83C106.09 192.53 109.63 191.97 111.42 191.75C110.47 190.79 109.58 190.58 108.34 189.94C107.07 189.29 106.53 187.53 105.59 186.68C103.67 184.93 99.17 186.33 97.01 186.75C96.71 188.52 97.36 189.59 97.4 191.17C97.46 193.39 95.72 196.07 96.01 198.25C96.06 198.63 96.6 199.33 96.75 199.59C94.33 200.3 93.39 201.68 92.75 204.09C91.92 204.42 91.08 204.75 90.25 205.08C89.81 208.04 91.8 209.2 92.41 211.84C92.69 213.03 91.94 214.07 91.81 215.25C91.58 217.38 92.32 220.05 91.72 222.1C91.43 223.1 89.9 223.99 89.21 224.75C89.21 233.08 87.1 240.96 86.83 249.25C86.77 251 87.66 252.61 87.66 254.25C87.66 255.87 85.65 260.28 85.61 262.79C85.55 265.49 86.11 268.52 85.62 271.25C85.4 272.45 84.67 273.5 84.52 274.76C84.06 278.89 85.09 283.1 84.63 287.25C83.08 301.13 82.52 315.24 82.21 329.25C81.86 344.86 82.3 357.97 86.8 372.96C87.37 374.85 89.03 376.1 89.78 377.95C91.34 381.84 92.87 385.88 95.58 389.16C101.43 396.26 107.44 402.88 115.13 408.12C116.38 408.97 117.33 410.42 118.6 411.14C143.33 425.19 171.69 422.34 199.25 422.46C224.9 422.56 250.59 422.43 276.25 422.71C292.9 422.89 309.58 422.65 326.25 422.65C336.46 422.65 346.78 423.01 356.9 421.22C370.21 418.86 381.25 412.08 391.68 403.94C392.83 403.04 394.61 402.34 395.58 401.33C399.01 397.74 402.52 393.25 405.69 389.43C406.69 388.24 406.71 386.51 407.61 385.41C422.69 367.22 421.28 333.2 419.85 310.75C419.35 302.95 419.76 295.07 419.62 287.25C419.38 272.81 418.44 258.2 417.6 243.75C417.37 239.64 417.85 235.45 417.78 231.35C417.57 218.79 417.1 206.1 416.16 193.68C416.08 192.51 416.65 191.43 416.51 190.26C416.41 189.35 415.77 188.66 415.67 187.73C415.13 182.61 415.68 177.36 415.82 172.25C415.85 171.17 416.4 169.79 416.28 168.76C415.93 165.86 414.82 162.72 414.57 159.73C414.38 157.45 415.05 154.99 415.08 152.75C415.11 151.35 414.16 150.14 414.05 148.75C413.93 147.25 414.42 145.77 414.37 144.32C414.21 139.85 410.81 133.65 409.75 129.06C409.25 128.83 408.75 128.59 408.25 128.36C407.14 122.88 406.8 119.51 400.69 118.25C400.64 117.89 400.17 115.59 400.27 115.41C401.04 113.98 401.91 114.76 400.43 112.75C398.64 113.67 396.92 114.48 396.06 111.25C394.96 111.09 393.85 110.92 392.75 110.76C391.23 109.4 390.51 109.26 388.44 109.75C393.52 110.5 386.56 111.81 384.72 111.75C383.82 109.88 383.79 109.07 381.75 108.17C378.52 110.29 375.72 113.5 371.8 114.25C371.12 115.5 370.43 116.74 369.75 117.99C368.75 117.5 367.75 117 366.75 116.51C366.08 118.08 365.42 119.65 364.75 121.21C363.34 121.06 361.92 120.9 360.51 120.75C360.59 121.9 360.67 123.06 360.75 124.21C360.08 123.65 359.42 123.08 358.75 122.51C357.75 123.92 356.76 125.34 355.76 126.75C357.51 128.5 357.65 129.09 359.75 128.72C359.79 130.54 359.12 132.81 361.28 133.25C360.03 134.92 358.77 136.58 357.51 138.25C354.73 138.83 354.97 139.4 352.75 140.51C352.42 139.59 352.08 138.68 351.75 137.76C349.24 137.75 337.95 138.16 336.51 139.25C336.65 141.27 337.66 142.33 339.25 143.49C341.6 143.49 343.35 142.35 345.09 142.25C344.85 145.96 343.63 150.17 346.21 152.75C346.19 154.75 346.16 156.75 346.14 158.75C345.18 159.42 344.23 160.08 343.28 160.75C344.14 161.97 345.07 163.72 346.76 163.75C346.75 165.92 346.73 168.08 346.72 170.25C348.35 171.4 348.85 172.97 349.25 174.88C350.17 174.33 351.08 173.79 352 173.25C348.91 172.61 350.65 170.92 350.65 168.75C351.35 168.24 352.05 167.73 352.75 167.22C352.42 166.17 352.08 165.12 351.75 164.07C350.42 163.97 349.08 163.86 347.75 163.76C347.75 162.19 347.75 160.63 347.75 159.06C348.92 158.3 350.08 157.55 351.25 156.79C352.23 158.27 352.55 160.25 353.74 161.57C354.27 162.16 355.69 162.37 356.04 163.29C356.49 164.47 355.03 165.08 355.26 165.69C355.44 166.19 356.41 166.24 356.75 166.77C355.76 167.27 354.77 167.76 353.77 168.25C353.77 172.4 352.59 175.55 350.09 178.75C354.21 179.85 351.42 184.15 351.75 186.98C352.75 186.66 353.75 186.34 354.75 186.02C354.75 187.01 354.75 187.99 354.75 188.98C353.92 188.65 353.08 188.32 352.25 187.98C351.45 190.07 349.54 190.48 347.55 191.25C347.95 192.39 348.35 193.53 348.75 194.67C348.92 193.78 349.08 192.9 349.25 192.02C350.29 193.23 349.81 194.19 351.75 194.43C351.8 196.32 353.55 196.35 353.75 197.98C352.53 198.24 351.3 198.49 350.08 198.75C350.21 200.08 350.34 201.42 350.47 202.75C349.66 201.76 349.74 201.17 348.14 200.75C347.34 198.36 346.55 195.97 345.75 193.58C345.44 195.01 344.74 200.94 346.5 199.75C346.5 200.94 346.77 202.52 346.41 203.66C345.8 205.54 343.82 206.04 344.5 208.25C343.14 208.83 341.78 209.42 340.42 210ZM320 210.34C322.83 210.12 329.34 209.22 331.5 210.92C328.67 211.11 322.02 212.05 320 210.34ZM157.5 287.58C157.92 287.89 158.33 288.19 158.75 288.5C161.99 287.3 166.31 288 169.75 288C177.25 288 184.75 288 192.25 288C195.29 288 201.2 287.67 203.58 289.5C203.56 289.66 203.53 289.82 203.5 289.97C196.54 287.55 175.24 288.95 166.75 289.02C163.01 289.05 156.98 288.05 154.48 291.73C152.31 294.95 153.29 299.28 153.8 302.84C154.99 311.31 157 319.47 161.48 326.91C161.32 326.97 161.16 327.03 161 327.08C158.21 324.81 157.87 320.51 156.21 317.5C154.28 313.28 153.5 309.5 153.5 304.75C152.07 304.84 152.1 302.64 152.23 301.5C152.32 301.42 152.41 301.33 152.5 301.25C152.5 299.92 152.5 298.58 152.5 297.25C152.03 296.83 151.56 296.42 151.08 296C150.89 295.58 150.69 295.17 150.5 294.75C150.83 294.31 151.17 293.86 151.5 293.42C152.17 293.19 152.83 292.97 153.5 292.75C153.63 291.14 154.64 290.14 156 289.25C155.83 289.03 155.67 288.8 155.5 288.58C155.58 288.38 155.67 288.19 155.75 288C156.33 287.86 156.92 287.72 157.5 287.58ZM291.39 305C289.74 308.21 287.08 311.42 283.58 312.58C284.06 312.13 284.53 311.69 285 311.25C285.83 310.58 286.67 309.92 287.5 309.25C287.5 309.03 287.5 308.81 287.5 308.58C288.25 307.56 289 306.53 289.75 305.5C290.08 305.33 290.42 305.17 290.75 305C290.96 305 291.18 305 291.39 305ZM215.59 311.06C216.64 311.21 217.7 311.35 218.75 311.5C220.25 312.17 221.75 312.83 223.25 313.5C224 313.87 224.75 314.23 225.5 314.6C228.96 316.35 239.94 317.69 244 317.42C250.11 317.82 263.52 318.89 268.58 316C269.64 316 270.69 316 271.75 316C272.04 316.25 272.32 316.49 272.61 316.74C260.57 320.31 240.64 319.38 228.56 316.23C224.52 315.17 218.69 314.15 215.59 311.06Z" fill="#c012f8" fill-rule="evenodd" stroke="#c012f8" stroke-width="0.25" stroke-linejoin="round"/>
<path d="M188 257.42C189.17 258.25 190.33 259.08 191.5 259.92C194.92 260.19 198.57 263.68 201.75 262.5C202.25 263 202.75 263.5 203.25 264C205.08 263.13 212.25 265.4 212.75 267C216.49 266.25 219.78 268.5 223.75 268.5C224.58 269.17 225.42 269.83 226.25 270.5C227.08 270.17 227.92 269.83 228.75 269.5C230.24 270.99 230.76 270.9 232.75 270.5C233.25 271 233.75 271.5 234.25 272C236.4 271.57 238 271.64 239.75 273C240.75 272.83 241.75 272.67 242.75 272.5C244.53 273.39 246.61 273.5 248.75 273.5C252.3 277.87 261.78 273.74 266.75 278.5C268.53 276.8 270.41 278.5 272.75 278.5C271.57 280.25 275.01 279.58 276.25 279.5C279.18 282.31 284.12 282.55 287.27 285.5C287.18 285.92 287.09 286.33 287 286.75C287.33 287.08 287.67 287.42 288 287.75C288.42 287.81 288.83 287.87 289.25 287.93C289.67 288.43 290.08 288.92 290.5 289.42C290.83 289.69 291.17 289.97 291.5 290.25C290.5 291.54 290.8 292.5 292 293.75C292.14 296.5 292.29 299.25 292.43 302C292.09 303 291.74 304 291.39 305C291.18 305 290.96 305 290.75 305C290.42 305.17 290.08 305.33 289.75 305.5C289 306.53 288.25 307.56 287.5 308.58C286.46 309.59 285.62 309.18 284.25 309C283.18 311.33 279.57 314.57 276.75 313C276.36 313.52 276.46 314.27 276.13 314.63C274.4 316.47 268.3 314.24 265.75 316C266.69 316 267.64 316 268.58 316C263.52 318.89 250.11 317.82 244 317.42C242.27 316.82 240.11 317.34 238.25 316.91C234.59 316.06 229.44 313.56 225.5 314.6C224.75 314.23 224 313.87 223.25 313.5C221.75 312.83 220.25 312.17 218.75 311.5C217.7 311.35 216.64 311.21 215.59 311.06C211.02 308.44 208.47 303.36 207.28 298.46C206.61 295.74 206.84 290.78 203.5 289.97C203.53 289.82 203.56 289.66 203.58 289.5C203.97 289.52 204.36 289.54 204.75 289.56C200.62 287.11 196.05 287.85 191.25 287.91C183.92 287.99 176.58 287.86 169.25 287.82C165.54 287.8 161.03 288.68 157.5 287.58C156.92 287.72 156.33 287.86 155.75 288C155.67 288.19 155.58 288.38 155.5 288.58C154.75 289.22 154 289.86 153.25 290.5C153.08 291.05 152.92 291.6 152.75 292.15C152.33 292.35 151.92 292.55 151.5 292.75C151.5 292.97 151.5 293.19 151.5 293.42C151.17 293.86 150.83 294.31 150.5 294.75C150.69 295.17 150.89 295.58 151.08 296C151.43 296.42 151.78 296.83 152.12 297.25C151.91 298.42 151.71 299.58 151.5 300.75C151.74 301 151.98 301.25 152.23 301.5C152.1 302.64 152.07 304.84 153.5 304.75C153.5 309.5 154.28 313.28 156.21 317.5C156.64 319.75 157.07 322 157.5 324.25C158.83 325.75 160.17 327.25 161.5 328.75C161.33 328.19 161.17 327.64 161 327.08C161.16 327.03 161.32 326.97 161.48 326.91C163.91 329.89 165.86 333.41 168.3 336.46C173.59 343.07 181.78 348.4 189.12 352.37C188.41 352.5 187.71 352.62 187 352.75C185.91 351.66 185.08 350.86 183.7 350.75C184.37 351.86 187.86 355.42 189.31 355.99C189.94 356.23 191.08 355.7 191.54 356.36C191.55 356.38 191.26 358.03 191.25 358.2C191.49 357.91 192.04 356.81 192.31 356.64C193.08 356.17 196.71 357.36 196.89 358.34C196.97 358.75 196.31 359.7 196.25 360.24C197.75 360.02 199.25 359.8 200.75 359.58C201.33 360.14 201.92 360.69 202.5 361.25C205.48 360.86 209.64 361.31 211.63 363.75C209.07 364.57 209.08 363.75 207.75 362C206.33 362.08 204.92 362.17 203.5 362.25C203.82 363.08 204.15 363.92 204.47 364.75C203.56 366.13 202.74 365.96 201.25 365.45C201.08 364.5 200.92 363.56 200.75 362.62C198.25 362.12 195.75 361.62 193.25 361.13C193.97 363.02 195.18 363.63 191.75 365.07C190.99 364.47 190.23 363.86 189.47 363.25C190.3 362.58 191.14 361.92 191.98 361.25C191.15 357.77 187.32 359.84 184.75 359.69C184.25 358.23 183.75 356.78 183.25 355.33C180.59 353.95 179.34 353.84 177.75 351.29C176.93 351.78 176.1 352.26 175.28 352.75C174.36 352.25 173.44 351.75 172.52 351.25C173.27 348.82 173.9 349.65 176 349.25C173.71 348.1 173.39 347.28 172.25 345C171.45 346.07 172.25 346.45 171.96 347.72C171.43 349.98 168.24 351.36 166.25 351.88C165.58 350.6 164.92 349.31 164.25 348.03C161.06 348.33 160.83 351.19 159.25 352.92C158.29 352.05 158.79 350.31 158.77 348.75C156.88 347.37 155.57 346.72 154.75 344.17C152.9 343.95 150.51 344.75 148.75 344.19C146.84 343.58 144.72 342.62 142.75 342.23C142.05 342.75 139.08 344.04 138.25 344.17C135.95 344.54 136.21 343.36 135.25 346.23C134.09 344.55 131.96 344.26 131.75 342.23C130.75 342.23 129.75 342.23 128.75 342.23C128.42 342.9 128.08 343.56 127.75 344.22C125.24 344.23 122.72 344.24 120.21 344.25C119.89 345.81 119.57 347.36 119.25 348.92C119.11 347.03 118.97 345.14 118.83 343.25C116.73 342.92 114.63 342.58 112.53 342.25C111.69 344.24 111.49 347.92 109.25 348.75C108.41 346.51 107.58 344.28 106.75 342.04C104.09 342.23 103.19 344.39 102.74 346.75C100.06 343.12 102.14 338.92 100.25 336.03C99.25 336.2 98.25 336.37 97.25 336.53C97.32 337.75 97.67 342.78 98.23 343.59C99.28 345.13 100.95 342.75 101.07 345.75C100.64 345.7 99.67 345.17 99.38 345.23C97.12 345.71 98.01 350.33 95.4 349.25C94.34 353.92 93.28 358.58 92.22 363.25C93.23 363.92 94.24 364.58 95.25 365.25C94.59 367.61 93.72 371.67 94.5 374.25C100.35 380.26 97.59 384.77 105.75 389.75C107.59 393.08 108.61 397.46 112.14 399.61C113.41 400.38 114.94 400.42 116.2 401.25C117.39 406.76 124.87 409.99 129.77 411.49C131.11 411.89 132.58 411.79 133.83 412.42C148.62 419.9 166.14 417.32 182.25 417.99C191.66 418.38 201.14 419.17 210.75 418.92C235.77 418.25 260.7 419.35 285.75 419.71C291.39 419.79 297.06 418.72 302.75 418.83C319.44 419.18 335.92 420.45 352.52 417.76C355.75 417.24 358.94 417.2 362.13 416.31C373.12 413.22 385.3 406.19 392.72 397.45C394.87 394.91 399.35 391.76 401.15 389.42C403.97 385.78 405.42 381.34 407.61 377.35C414.53 364.75 415.88 349.96 414.47 335.75C414.24 333.46 415.06 331.21 414.75 328.89C414.09 323.92 413.7 318.95 412.49 314.23C411.5 310.39 412.33 308.39 410.75 304.25C410.61 299.69 409.97 299.05 408.21 295.25C408.46 293.08 408.71 290.92 408.96 288.75C408.22 289.08 407.48 289.42 406.74 289.75C405.13 286.74 403.22 287 401.25 289.75C400.79 289.55 400.47 289.69 400.27 289.1C399.88 288.01 400.82 286.88 400.74 285.75C400.53 282.77 400.01 279.27 399.47 276.25C397.06 276.23 394.66 276.21 392.25 276.19C391.89 277.37 391.53 278.56 391.17 279.75C392.17 279.92 393.17 280.08 394.17 280.25C393.5 281.09 389.1 287.43 388.67 287.49C387.83 287.63 387.02 287.05 385.99 287.25C386.57 287.81 387.16 288.36 387.75 288.92C386.05 290.27 384.42 290.67 382.25 290.99C381.67 293.59 379.98 294.63 380.72 297.25C378.11 299.03 371.52 297.94 368.02 298.25C367.41 300.73 366.21 303.13 367.93 304.75C365 305.32 364.03 305.88 363.75 308.99C362.58 309.36 361.42 309.74 360.25 310.11C359.52 311.32 358.79 312.54 358.06 313.75C354.44 314.64 354.87 318.49 352.75 319.63C352.25 318.08 351.75 316.54 351.25 315C350.67 315.92 350.08 316.83 349.5 317.75C349.77 319.08 350.03 320.42 350.3 321.75C352.31 323.02 352.22 324.15 351.25 326.26C350.77 325.25 350.3 324.25 349.82 323.25C348.63 324.13 347.44 325 346.25 325.88C345.4 324.51 344.54 323.5 344.62 321.75C344.69 320.08 346.12 319.3 346.59 317.83C347.87 313.82 348.73 309.74 349.25 305.5C347.66 308.67 347.73 311.83 346.91 315.16C346.3 317.59 344.29 319.44 343.59 321.84C343.14 323.43 343.54 324.77 343 326.25C342.32 326 341.64 325.76 340.96 325.51C345.6 318.13 347.06 309.43 348.34 301C349.38 300.77 349.03 302.88 349.25 304C351.06 299.88 351.31 293.37 350.18 288.75C349.87 292.5 349.56 296.25 349.25 300C349.12 296.83 349 293.67 348.87 290.5C348.67 283.21 347.14 275.73 344.51 268.97C345.81 266.95 341.25 260.65 340.5 258.25C338.19 254.72 333.74 253.31 332.5 249.25C330.82 248.41 329.75 247.28 328 247.25C327.75 246.5 327.5 245.75 327.25 245C325.33 243.92 323.42 242.83 321.5 241.75C323.38 240.66 324.19 241.55 325.8 242.25C325.61 241.42 325.43 240.6 325.25 239.77C328.25 239.71 327.65 236.48 327.51 234.25C328.21 233.92 328.91 233.58 329.6 233.25C329.74 232.25 329.88 231.25 330.01 230.25C331.88 229.75 333.74 229.25 335.6 228.75C335.6 227.75 335.6 226.75 335.6 225.75C332.94 225.19 331.51 224.64 329.25 223.49C330.82 221.81 337.24 222.6 335.75 219.19C336.32 219.04 336.89 218.9 337.46 218.75C337.22 217.77 336.99 216.79 336.75 215.81C335.58 215.94 334.42 216.06 333.25 216.18C332.92 215.5 332.58 214.83 332.25 214.15C331.11 214.02 329.97 213.88 328.84 213.75C331.23 213.42 333.62 213.08 336.01 212.75C333.03 211.18 317.06 211.38 312.75 211.26C313 210.94 313.25 210.63 313.5 210.32C315.67 210.32 317.83 210.33 320 210.34C322.02 212.05 328.67 211.11 331.5 210.92C332.25 210.65 333 210.38 333.75 210.12C335.43 211.29 336.82 210.69 338.75 211C339.31 210.67 339.86 210.33 340.42 210C341.78 209.42 343.14 208.83 344.5 208.25C343.82 206.04 345.8 205.54 346.41 203.66C346.77 202.52 346.5 200.94 346.5 199.75C344.74 200.94 345.44 195.01 345.75 193.58C346.55 195.97 347.34 198.36 348.14 200.75C349.74 201.17 349.66 201.76 350.47 202.75C350.34 201.42 350.21 200.08 350.08 198.75C351.3 198.49 352.53 198.24 353.75 197.98C353.55 196.35 351.8 196.32 351.75 194.43C349.81 194.19 350.29 193.23 349.25 192.02C349.08 192.9 348.92 193.78 348.75 194.67C348.35 193.53 347.95 192.39 347.55 191.25C349.54 190.48 351.45 190.07 352.25 187.98C353.08 188.32 353.92 188.65 354.75 188.98C354.75 187.99 354.75 187.01 354.75 186.02C353.75 186.34 352.75 186.66 351.75 186.98C351.42 184.15 354.21 179.85 350.09 178.75C352.59 175.55 353.77 172.4 353.77 168.25C354.77 167.76 355.76 167.27 356.75 166.77C356.41 166.24 355.44 166.19 355.26 165.69C355.03 165.08 356.49 164.47 356.04 163.29C355.69 162.37 354.27 162.16 353.74 161.57C352.55 160.25 352.23 158.27 351.25 156.79C350.08 157.55 348.92 158.3 347.75 159.06C347.75 160.63 347.75 162.19 347.75 163.76C349.08 163.86 350.42 163.97 351.75 164.07C352.08 165.12 352.42 166.17 352.75 167.22C352.05 167.73 351.35 168.24 350.65 168.75C350.65 170.92 348.91 172.61 352 173.25C351.08 173.79 350.17 174.33 349.25 174.88C348.85 172.97 348.35 171.4 346.72 170.25C346.73 168.08 346.75 165.92 346.76 163.75C345.07 163.72 344.14 161.97 343.28 160.75C344.23 160.08 345.18 159.42 346.14 158.75C346.16 156.75 346.19 154.75 346.21 152.75C343.63 150.17 344.85 145.96 345.09 142.25C343.35 142.35 341.6 143.49 339.25 143.49C337.66 142.33 336.65 141.27 336.51 139.25C337.95 138.16 349.24 137.75 351.75 137.76C352.08 138.68 352.42 139.59 352.75 140.51C354.97 139.4 354.73 138.83 357.51 138.25C358.77 136.58 360.03 134.92 361.28 133.25C359.12 132.81 359.79 130.54 359.75 128.72C357.65 129.09 357.51 128.5 355.76 126.75C356.76 125.34 357.75 123.92 358.75 122.51C359.42 123.08 360.08 123.65 360.75 124.21C360.67 123.06 360.59 121.9 360.51 120.75C361.92 120.9 363.34 121.06 364.75 121.21C365.42 119.65 366.08 118.08 366.75 116.51C367.75 117 368.75 117.5 369.75 117.99C370.43 116.74 371.12 115.5 371.8 114.25C375.72 113.5 378.52 110.29 381.75 108.17C383.79 109.07 383.82 109.88 384.72 111.75C386.56 111.81 393.52 110.5 388.44 109.75C390.51 109.26 391.23 109.4 392.75 110.76C393.85 110.92 394.96 111.09 396.06 111.25C396.92 114.48 398.64 113.67 400.43 112.75C401.91 114.76 401.04 113.98 400.27 115.41C400.17 115.59 400.64 117.89 400.69 118.25C406.8 119.51 407.14 122.88 408.25 128.36C408.75 128.59 409.25 128.83 409.75 129.06C410.81 133.65 414.21 139.85 414.37 144.32C414.42 145.77 413.93 147.25 414.05 148.75C414.16 150.14 415.11 151.35 415.08 152.75C415.05 154.99 414.38 157.45 414.57 159.73C414.82 162.72 415.93 165.86 416.28 168.76C416.4 169.79 415.85 171.17 415.82 172.25C415.68 177.36 415.13 182.61 415.67 187.73C415.77 188.66 416.41 189.35 416.51 190.26C416.65 191.43 416.08 192.51 416.16 193.68C417.1 206.1 417.57 218.79 417.78 231.35C417.85 235.45 417.37 239.64 417.6 243.75C418.44 258.2 419.38 272.81 419.62 287.25C419.76 295.07 419.35 302.95 419.85 310.75C421.28 333.2 422.69 367.22 407.61 385.41C406.71 386.51 406.69 388.24 405.69 389.43C402.52 393.25 399.01 397.74 395.58 401.33C394.61 402.34 392.83 403.04 391.68 403.94C381.25 412.08 370.21 418.86 356.9 421.22C346.78 423.01 336.46 422.65 326.25 422.65C309.58 422.65 292.9 422.89 276.25 422.71C250.59 422.43 224.9 422.56 199.25 422.46C171.69 422.34 143.33 425.19 118.6 411.14C117.33 410.42 116.38 408.97 115.13 408.12C107.44 402.88 101.43 396.26 95.58 389.16C92.87 385.88 91.34 381.84 89.78 377.95C89.03 376.1 87.37 374.85 86.8 372.96C82.3 357.97 81.86 344.86 82.21 329.25C82.52 315.24 83.08 301.13 84.63 287.25C85.09 283.1 84.06 278.89 84.52 274.76C84.67 273.5 85.4 272.45 85.62 271.25C86.11 268.52 85.55 265.49 85.61 262.79C85.65 260.28 87.66 255.87 87.66 254.25C87.66 252.61 86.77 251 86.83 249.25C87.1 240.96 89.21 233.08 89.21 224.75C89.9 223.99 91.43 223.1 91.72 222.1C92.32 220.05 91.58 217.38 91.81 215.25C91.94 214.07 92.69 213.03 92.41 211.84C91.8 209.2 89.81 208.04 90.25 205.08C91.08 204.75 91.92 204.42 92.75 204.09C93.39 201.68 94.33 200.3 96.75 199.59C96.6 199.33 96.06 198.63 96.01 198.25C95.72 196.07 97.46 193.39 97.4 191.17C97.36 189.59 96.71 188.52 97.01 186.75C99.17 186.33 103.67 184.93 105.59 186.68C106.53 187.53 107.07 189.29 108.34 189.94C109.58 190.58 110.47 190.79 111.42 191.75C109.63 191.97 106.09 192.53 104.39 191.83C103.16 191.32 102.86 190.91 101.25 190.91C100.62 193.28 98.66 195.9 100.75 198.09C102.56 197.46 101.91 195.73 103.09 194.25C104.36 194.58 105.64 194.92 106.91 195.25C107.52 195.86 108.14 196.48 108.75 197.09C108.97 198.68 108.48 200.72 108.93 202.24C109.63 204.61 110.47 206.51 109.31 209.25C109.9 209.83 110.77 210.31 111.29 210.92C111.94 211.69 114.1 222.41 114.25 223.9C114.92 222.3 115.58 220.69 116.25 219.09C118.74 221.71 116.77 225.67 119.75 228.35C122.43 228.48 125.12 228.62 127.8 228.75C127.21 231.4 121.53 228.59 120.09 230.25C120.77 233.03 126.82 232.21 129.25 232.2C132.11 235.96 132.7 241.4 133.25 245.82C135.19 246.97 136.18 248.35 136.2 250.75C137.38 251.14 138.57 251.52 139.75 251.91C140.33 253.64 140.85 255.34 142.75 255.5C142.97 255.26 141.98 253.73 141.97 252.25C143.51 252.11 143.77 251.56 144.69 250.75C145.38 252.27 146.06 253.8 146.75 255.32C147.58 254.75 148.42 254.17 149.25 253.6C150.55 255.43 150.45 256.87 152.25 258.6C152.3 259.48 152.35 260.37 152.4 261.25C153.18 262.03 153.97 262.82 154.75 263.6C157.33 263.56 160.07 263.47 160.25 260.67C160.41 261.36 160.29 262.52 160.61 263.14C161.42 264.74 163.05 264.59 163.25 266.82C165.23 266.82 165.71 266.73 166.82 265.25C167.63 265.37 168.44 265.48 169.25 265.6C170.85 263.73 173.28 263.25 175.6 261.87C176.72 261.2 177.27 259.28 178.41 258.7C179.42 258.19 180.7 258.57 181.71 258.75C181.89 260.47 182.07 262.19 182.25 263.91C179.96 264.95 178.48 263.98 176.75 262.41C175.91 262.85 175.08 263.3 174.24 263.75C173.92 266 171.47 270.55 174.25 271.6C175.78 270.91 174.95 269.83 175.75 268.35C176.92 268.69 178.08 269.03 179.25 269.38C180.91 268.67 182.58 267.96 184.24 267.25C183.72 265.97 183.66 265.88 182.25 265.69C183.56 264.43 185.7 265.87 185.75 267.33C186.87 266.44 187.3 266.42 188.75 266.57C189.42 266.71 190.08 266.86 190.75 267C191.34 267.92 191.93 268.83 192.51 269.75C194.09 269.13 195.67 268.51 197.25 267.89C200.74 269.28 202.81 272.89 207.63 272.75C208.03 270.59 206.43 270.78 204.78 270.25C204.52 268.25 205.87 267.53 206.32 265.75C204.88 265.61 201.52 265.53 201.85 263.75C198.11 263.5 195.27 267.16 191.69 265.25C192.82 264.08 193.95 262.92 195.09 261.75C193.17 260.69 192.47 261.25 190.75 261.87C189.76 260.83 188.76 259.79 187.77 258.75C187.84 258.31 187.92 257.86 188 257.42ZM340.05 327C340.2 327.75 340.35 328.5 340.5 329.25C338.31 330.68 338.12 333.31 335.75 334.5C336.07 336.36 332.87 338.88 331.25 340.5C328.31 343.44 325.32 346.08 321.67 348.42C318.77 350.28 314.44 351.27 312.75 354.5C311.67 354.17 309.47 355.24 309 354.22C320.33 350.63 334.93 337.7 340.05 327ZM182.75 350.54C181.89 349.54 172.69 341.99 171.59 341.75C173.24 343.57 174.95 345.43 176.87 346.94C178.08 347.89 180.05 348.02 181.14 349C182.26 350 181.13 350.64 182.75 350.54ZM192.21 353.96C197.31 355.84 202.4 357.72 207.5 359.6C204.81 360.93 196.06 356.21 192.75 355.5C192.57 354.99 192.39 354.47 192.21 353.96ZM307.95 354.93C307.88 355.28 307.82 355.64 307.75 356C306.25 356.83 304.75 357.67 303.25 358.5C298.79 358.5 294.39 360.9 290.16 361.91C287.85 362.46 285.05 361.88 282.84 362.59C281.74 362.95 280.86 364.12 279.66 364.41C277.51 364.92 272.23 365.09 270.5 364C283.47 362.01 295.78 359.96 307.95 354.93ZM211.5 360.45C227.65 365.97 249.65 364.92 266.5 364.11C265.85 365.51 261.43 365.99 259.75 366C254.46 366.03 243.57 367.71 239.25 365C232.92 364.67 226.58 364.33 220.25 364C219.75 363.5 219.25 363 218.75 362.5C216.42 362.17 214.08 361.83 211.75 361.5C211.67 361.15 211.58 360.8 211.5 360.45Z" fill="#aa0bf4" fill-rule="evenodd" stroke="#aa0bf4" stroke-width="0.25" stroke-linejoin="round"/>
<path d="M239.58 136.23C248.39 136.32 257.19 136.42 266 136.51C267.98 136.68 269.96 136.84 271.93 137.01C274.5 138.27 277.71 137.87 280.5 138.39C285.74 139.37 290.89 140.89 296.03 142.28C315.05 147.43 333.13 162.04 340.26 180.51C342.53 186.4 343.4 191.72 344.28 197.92C344.68 200.71 345.21 204.98 343.03 207.29C339.84 210.68 324.14 209.08 319.25 209.11C313.87 209.13 296.23 210.4 292.44 207.79C289.64 205.87 289.06 196.5 285.75 192.5C278.57 183.83 263.01 183.05 252.75 182.79C237.71 182.42 210.25 185.88 215.96 207.75C217.4 213.26 223.44 216.29 228.2 218.19C238.76 222.41 250.98 224.6 262.25 226.07C268.18 226.85 274.08 228.56 279.95 229.76C300.67 233.99 323.28 239.81 337.47 256.82C340.52 260.49 342.31 264.84 344.51 268.97C347.14 275.73 348.67 283.21 348.87 290.5C348.69 294 348.52 297.5 348.34 301C347.06 309.43 345.6 318.13 340.96 325.51C340.66 326.01 340.35 326.5 340.05 327C334.93 337.7 320.33 350.63 309 354.22C308.65 354.45 308.3 354.69 307.95 354.93C295.78 359.96 283.47 362.01 270.5 364C269.17 364.04 267.83 364.07 266.5 364.11C249.65 364.92 227.65 365.97 211.5 360.45C210.17 360.17 208.83 359.88 207.5 359.6C202.4 357.72 197.31 355.84 192.21 353.96C191.18 353.43 190.15 352.9 189.12 352.37C181.78 348.4 173.59 343.07 168.3 336.46C165.86 333.41 163.91 329.89 161.48 326.91C157 319.47 154.99 311.31 153.8 302.84C153.29 299.28 152.31 294.95 154.48 291.73C156.98 288.05 163.01 289.05 166.75 289.02C175.24 288.95 196.54 287.55 203.5 289.97C206.84 290.78 206.61 295.74 207.28 298.46C208.47 303.36 211.02 308.44 215.59 311.06C218.69 314.15 224.52 315.17 228.56 316.23C240.64 319.38 260.57 320.31 272.61 316.74C275.51 316.39 281.79 315.18 283.58 312.58C287.08 311.42 289.74 308.21 291.39 305C291.74 304 292.09 303 292.43 302C295.92 289.7 288.62 283.83 278.36 279.83C270.2 276.65 261.37 275.43 252.76 273.94C242.74 272.22 232.77 269.83 222.78 267.87C203.68 264.11 181.06 255.98 168.81 239.93C165.3 235.34 162.98 229.58 161.06 224.22C158.88 218.14 158.62 210.64 158.79 204.25C158.97 197.37 160.15 190.58 162.32 184.08C165.2 175.43 170.29 166.98 176.82 160.57C179.81 157.63 184.3 155.37 186.75 152.08C191.2 150.38 195.44 147.14 199.86 145.11C204.49 142.99 210.12 142.45 214.5 140.05C217.68 139.44 220.86 138.82 224.03 138.21C226.67 137.84 229.31 137.47 231.95 137.09C234.49 136.81 237.04 136.52 239.58 136.23Z" fill="#181718" fill-rule="evenodd" stroke="#181718" stroke-width="0.25" stroke-linejoin="round"/>
<path d="M222 137.92C221.42 137.94 220.83 137.97 220.25 138C218.42 138.5 216.58 139 214.75 139.5C214.67 139.68 214.58 139.87 214.5 140.05C210.82 139.9 206.27 141.61 203 143.25C202.67 143.15 202.33 143.06 202 142.96C206.66 139.23 213.26 140.63 218.25 137.5C219.5 137.64 220.75 137.78 222 137.92ZM340.42 210C339.86 210.33 339.31 210.67 338.75 211C336.82 210.69 335.43 211.29 333.75 210.12C333 210.38 332.25 210.65 331.5 210.92C329.34 209.22 322.83 210.12 320 210.34C317.83 210.33 315.67 210.32 313.5 210.32C309.58 209.88 305.21 209.91 301.25 210.14C300.03 210.21 299.42 210.89 298.25 211C297.5 211.07 294.68 210.16 295.75 210C310.64 210 325.53 210 340.42 210ZM191.5 259.92C190.33 259.08 189.17 258.25 188 257.42C187.75 257.11 187.5 256.81 187.25 256.5C189 257.25 190.75 258 192.5 258.75C192.17 259.14 191.83 259.53 191.5 259.92ZM189.12 352.37C190.15 352.9 191.18 353.43 192.21 353.96C192.39 354.47 192.57 354.99 192.75 355.5C196.06 356.21 204.81 360.93 207.5 359.6C208.83 359.88 210.17 360.17 211.5 360.45C211.58 360.8 211.67 361.15 211.75 361.5C214.08 361.83 216.42 362.17 218.75 362.5C219.25 363 219.75 363.5 220.25 364C226.58 364.33 232.92 364.67 239.25 365C243.57 367.71 254.46 366.03 259.75 366C261.43 365.99 265.85 365.51 266.5 364.11C267.83 364.07 269.17 364.04 270.5 364C272.23 365.09 277.51 364.92 279.66 364.41C280.86 364.12 281.74 362.95 282.84 362.59C285.05 361.88 287.85 362.46 290.16 361.91C294.39 360.9 298.79 358.5 303.25 358.5C304.75 357.67 306.25 356.83 307.75 356C307.82 355.64 307.88 355.28 307.95 354.93C308.3 354.69 308.65 354.45 309 354.22C309.47 355.24 311.67 354.17 312.75 354.5C314.44 351.27 318.77 350.28 321.67 348.42C325.32 346.08 328.31 343.44 331.25 340.5C332.87 338.88 336.07 336.36 335.75 334.5C338.12 333.31 338.31 330.68 340.5 329.25C340.35 328.5 340.2 327.75 340.05 327C340.35 326.5 340.66 326.01 340.96 325.51C341.64 325.76 342.32 326 343 326.25C343.54 324.77 343.14 323.43 343.59 321.84C344.29 319.44 346.3 317.59 346.91 315.16C347.73 311.83 347.66 308.67 349.25 305.5C348.73 309.74 347.87 313.82 346.59 317.83C346.12 319.3 344.69 320.08 344.62 321.75C344.54 323.5 345.4 324.51 346.25 325.88C347.44 325 348.63 324.13 349.82 323.25C350.3 324.25 350.77 325.25 351.25 326.26C352.22 324.15 352.31 323.02 350.3 321.75C350.03 320.42 349.77 319.08 349.5 317.75C350.08 316.83 350.67 315.92 351.25 315C351.75 316.54 352.25 318.08 352.75 319.63C354.87 318.49 354.44 314.64 358.06 313.75C358.79 312.54 359.52 311.32 360.25 310.11C361.42 309.74 362.58 309.36 363.75 308.99C364.03 305.88 365 305.32 367.93 304.75C366.21 303.13 367.41 300.73 368.02 298.25C371.52 297.94 378.11 299.03 380.72 297.25C379.98 294.63 381.67 293.59 382.25 290.99C384.42 290.67 386.05 290.27 387.75 288.92C387.16 288.36 386.57 287.81 385.99 287.25C387.02 287.05 387.83 287.63 388.67 287.49C389.1 287.43 393.5 281.09 394.17 280.25C393.17 280.08 392.17 279.92 391.17 279.75C391.53 278.56 391.89 277.37 392.25 276.19C394.66 276.21 397.06 276.23 399.47 276.25C400.01 279.27 400.53 282.77 400.74 285.75C400.82 286.88 399.88 288.01 400.27 289.1C400.47 289.69 400.79 289.55 401.25 289.75C403.22 287 405.13 286.74 406.74 289.75C407.48 289.42 408.22 289.08 408.96 288.75C408.71 290.92 408.46 293.08 408.21 295.25C409.97 299.05 410.61 299.69 410.75 304.25C412.33 308.39 411.5 310.39 412.49 314.23C413.7 318.95 414.09 323.92 414.75 328.89C415.06 331.21 414.24 333.46 414.47 335.75C415.88 349.96 414.53 364.75 407.61 377.35C405.42 381.34 403.97 385.78 401.15 389.42C399.35 391.76 394.87 394.91 392.72 397.45C385.3 406.19 373.12 413.22 362.13 416.31C358.94 417.2 355.75 417.24 352.52 417.76C335.92 420.45 319.44 419.18 302.75 418.83C297.06 418.72 291.39 419.79 285.75 419.71C260.7 419.35 235.77 418.25 210.75 418.92C201.14 419.17 191.66 418.38 182.25 417.99C166.14 417.32 148.62 419.9 133.83 412.42C132.58 411.79 131.11 411.89 129.77 411.49C124.87 409.99 117.39 406.76 116.2 401.25C114.94 400.42 113.41 400.38 112.14 399.61C108.61 397.46 107.59 393.08 105.75 389.75C97.59 384.77 100.35 380.26 94.5 374.25C93.72 371.67 94.59 367.61 95.25 365.25C94.24 364.58 93.23 363.92 92.22 363.25C93.28 358.58 94.34 353.92 95.4 349.25C98.01 350.33 97.12 345.71 99.38 345.23C99.67 345.17 100.64 345.7 101.07 345.75C100.95 342.75 99.28 345.13 98.23 343.59C97.67 342.78 97.32 337.75 97.25 336.53C98.25 336.37 99.25 336.2 100.25 336.03C102.14 338.92 100.06 343.12 102.74 346.75C103.19 344.39 104.09 342.23 106.75 342.04C107.58 344.28 108.41 346.51 109.25 348.75C111.49 347.92 111.69 344.24 112.53 342.25C114.63 342.58 116.73 342.92 118.83 343.25C118.97 345.14 119.11 347.03 119.25 348.92C119.57 347.36 119.89 345.81 120.21 344.25C122.72 344.24 125.24 344.23 127.75 344.22C128.08 343.56 128.42 342.9 128.75 342.23C129.75 342.23 130.75 342.23 131.75 342.23C131.96 344.26 134.09 344.55 135.25 346.23C136.21 343.36 135.95 344.54 138.25 344.17C139.08 344.04 142.05 342.75 142.75 342.23C144.72 342.62 146.84 343.58 148.75 344.19C150.51 344.75 152.9 343.95 154.75 344.17C155.57 346.72 156.88 347.37 158.77 348.75C158.79 350.31 158.29 352.05 159.25 352.92C160.83 351.19 161.06 348.33 164.25 348.03C164.92 349.31 165.58 350.6 166.25 351.88C168.24 351.36 171.43 349.98 171.96 347.72C172.25 346.45 171.45 346.07 172.25 345C173.39 347.28 173.71 348.1 176 349.25C173.9 349.65 173.27 348.82 172.52 351.25C173.44 351.75 174.36 352.25 175.28 352.75C176.1 352.26 176.93 351.78 177.75 351.29C179.34 353.84 180.59 353.95 183.25 355.33C183.75 356.78 184.25 358.23 184.75 359.69C187.32 359.84 191.15 357.77 191.98 361.25C191.14 361.92 190.3 362.58 189.47 363.25C190.23 363.86 190.99 364.47 191.75 365.07C195.18 363.63 193.97 363.02 193.25 361.13C195.75 361.62 198.25 362.12 200.75 362.62C200.92 363.56 201.08 364.5 201.25 365.45C202.74 365.96 203.56 366.13 204.47 364.75C204.15 363.92 203.82 363.08 203.5 362.25C204.92 362.17 206.33 362.08 207.75 362C209.08 363.75 209.07 364.57 211.63 363.75C209.64 361.31 205.48 360.86 202.5 361.25C201.92 360.69 201.33 360.14 200.75 359.58C199.25 359.8 197.75 360.02 196.25 360.24C196.31 359.7 196.97 358.75 196.89 358.34C196.71 357.36 193.08 356.17 192.31 356.64C192.04 356.81 191.49 357.91 191.25 358.2C191.26 358.03 191.55 356.38 191.54 356.36C191.08 355.7 189.94 356.23 189.31 355.99C187.86 355.42 184.37 351.86 183.7 350.75C185.08 350.86 185.91 351.66 187 352.75C187.71 352.62 188.41 352.5 189.12 352.37ZM287.27 285.5C288.35 286.58 289.42 287.67 290.5 288.75C290.5 288.97 290.5 289.19 290.5 289.42C290.08 288.92 289.67 288.43 289.25 287.93C288.83 287.87 288.42 287.81 288 287.75C287.67 287.42 287.33 287.08 287 286.75C287.09 286.33 287.18 285.92 287.27 285.5ZM157.5 287.58C161.03 288.68 165.54 287.8 169.25 287.82C176.58 287.86 183.92 287.99 191.25 287.91C196.05 287.85 200.62 287.11 204.75 289.56C204.36 289.54 203.97 289.52 203.58 289.5C201.2 287.67 195.29 288 192.25 288C184.75 288 177.25 288 169.75 288C166.31 288 161.99 287.3 158.75 288.5C158.33 288.19 157.92 287.89 157.5 287.58ZM155.5 288.58C155.67 288.8 155.83 289.03 156 289.25C154.64 290.14 153.63 291.14 153.5 292.75C152.83 292.97 152.17 293.19 151.5 293.42C151.5 293.19 151.5 292.97 151.5 292.75C151.92 292.55 152.33 292.35 152.75 292.15C152.92 291.6 153.08 291.05 153.25 290.5C154 289.86 154.75 289.22 155.5 288.58ZM348.34 301C348.52 297.5 348.69 294 348.87 290.5C349 293.67 349.12 296.83 349.25 300C349.56 296.25 349.87 292.5 350.18 288.75C351.31 293.37 351.06 299.88 349.25 304C349.03 302.88 349.38 300.77 348.34 301ZM151.08 296C151.56 296.42 152.03 296.83 152.5 297.25C152.5 298.58 152.5 299.92 152.5 301.25C152.41 301.33 152.32 301.42 152.23 301.5C151.98 301.25 151.74 301 151.5 300.75C151.71 299.58 151.91 298.42 152.12 297.25C151.78 296.83 151.43 296.42 151.08 296ZM287.5 308.58C287.5 308.81 287.5 309.03 287.5 309.25C286.67 309.92 285.83 310.58 285 311.25C284.53 311.69 284.06 312.13 283.58 312.58C281.79 315.18 275.51 316.39 272.61 316.74C272.32 316.49 272.04 316.25 271.75 316C270.69 316 269.64 316 268.58 316C267.64 316 266.69 316 265.75 316C268.3 314.24 274.4 316.47 276.13 314.63C276.46 314.27 276.36 313.52 276.75 313C279.57 314.57 283.18 311.33 284.25 309C285.62 309.18 286.46 309.59 287.5 308.58ZM244 317.42C239.94 317.69 228.96 316.35 225.5 314.6C229.44 313.56 234.59 316.06 238.25 316.91C240.11 317.34 242.27 316.82 244 317.42ZM156.21 317.5C157.87 320.51 158.21 324.81 161 327.08C161.17 327.64 161.33 328.19 161.5 328.75C160.17 327.25 158.83 325.75 157.5 324.25C157.07 322 156.64 319.75 156.21 317.5ZM182.75 350.54C181.13 350.64 182.26 350 181.14 349C180.05 348.02 178.08 347.89 176.87 346.94C174.95 345.43 173.24 343.57 171.59 341.75C172.69 341.99 181.89 349.54 182.75 350.54Z" fill="#7d06d7" fill-rule="evenodd" stroke="#7d06d7" stroke-width="0.25" stroke-linejoin="round"/>
<path d="M394.8 84.5C395.2 84.75 395.6 85 396 85.25C395.69 85.5 395.38 85.75 395.07 86C396.1 87.79 396.92 87.79 398.25 89C398.01 90.51 399.76 91.58 400.75 92.69C401.63 90.99 402.43 92.68 403.5 93.75C401.88 94.79 404.18 96.07 405.08 97.25C407.24 95.53 408.34 101.52 410 101.75C409.58 103.14 410.34 104.6 412 104.25C412.1 104.64 411.95 105.77 412.17 106.09C412.58 106.69 412.89 106.04 413.19 106.22C414.74 107.12 416.73 112.29 416.75 113.89C418.59 113.62 418.17 115.78 418.25 117.08C420.25 117.53 419.44 123.73 421.5 122.25C421.67 123.75 421.85 125.25 422.02 126.75C422.66 127.5 423.29 128.25 423.93 129C424.29 129.42 424.64 129.83 425 130.25C424.81 131.31 424.27 134.44 426 133.75C426.03 135.17 426.06 136.58 426.09 138C425.27 139.94 425.4 141.01 426.5 142.75C425.39 147.7 426.09 153.44 426.08 158.75C426.07 169.08 426.24 179.42 426.25 189.75C426.27 223.43 426.45 257.09 426.61 290.75C426.68 304.42 426.78 318.08 426.72 331.75C426.7 336.89 425.37 346.53 426.92 351C427.52 358.25 424.59 366.6 422.05 373.28C413.85 394.88 396.82 412.17 375.82 421.59C369.62 424.37 355.55 429.36 349 428.58C283 428.56 217 428.54 151 428.52C145.14 429.2 136.27 426.02 130.65 424.15C100.15 414.01 81.02 388.22 73.87 358C74.13 357.75 74.39 357.5 74.65 357.25C74.35 356.5 74.05 355.75 73.75 355C73.76 352.92 73.78 350.83 73.79 348.75C73.56 348.67 73.32 348.58 73.08 348.5C73.09 347.67 73.1 346.83 73.11 346C74.93 341.57 73.61 334.16 73.63 329.25C73.68 316.58 73.64 303.92 73.65 291.25C73.67 257.22 74.09 223.38 74.15 189.25C74.17 179.64 73.5 170.36 73.5 160.75C73.5 157.53 72.61 152.83 73.52 149.77C73.75 148.97 74.38 148.59 74.59 147.75C75 146.15 73.89 141.81 74.5 138.75C77.89 141.02 74.46 125.84 77.75 129.65C78.58 127.32 78.18 126.5 78 124.25C78.92 122.78 79.19 120.59 80.75 121.88C81.49 120.17 82.23 118.46 82.96 116.75C80.24 116.71 82.94 114.05 83.75 112.5C83.58 113.75 83.42 115 83.25 116.25C84.32 114.42 85.39 112.58 86.46 110.75C84.98 108.83 86.91 107.48 88 105.75C91.1 105.62 90.67 101.75 92.27 99.52C93.45 97.86 94.47 98.76 95.69 97.75C95.59 95.18 95.44 94.85 98.65 94.75C95.43 91.4 104.48 90.47 105.26 88.54C105.44 88.08 105.17 87.08 105.25 86.5C106.31 86.04 106.67 86.56 107.74 86.39C110.08 86.01 108.24 83.91 110.58 84.25C109.48 81.47 116.34 79.74 117.75 78C118.46 78.25 119.17 78.5 119.88 78.75C120.99 78.09 123.63 77.53 124.41 76.53C124.88 75.93 124.74 75.19 125.25 74.5C127.42 73.5 129.58 72.5 131.75 71.5C132.63 73.38 134.39 72.74 136 71.75C135.42 71.5 134.83 71.25 134.25 71C138.13 69.15 140.84 71.73 144.75 70.58C144.58 70.06 144.42 69.53 144.25 69C147.64 67.38 151.03 68.53 154.27 69.39C156.29 69.93 159.59 69.26 161.75 69.3C175.93 69.56 190.11 69.19 204.25 69.19C242.3 69.19 280.57 67.91 318.75 68.75C331.5 69.03 344.39 67.68 356.75 68.5C356.42 68.92 356.08 69.33 355.75 69.75C359.17 70.08 362.58 70.42 366 70.75C365.08 70.92 364.17 71.08 363.25 71.25C365.08 71.33 366.92 71.42 368.75 71.5C369.99 73.15 369.29 72.48 371.5 72.75C371.24 73.08 370.55 73.32 370.7 73.71C370.95 74.38 379.54 76.16 380.25 76.5C381.1 77.48 379.71 78.59 384 78.25C385.84 80.09 387.92 81.12 389.5 82.25C389.75 82.82 390 83.4 390.25 83.97C390.92 84.37 391.58 84.76 392.25 85.16C393.1 84.94 393.95 84.72 394.8 84.5ZM392 407.25C394.69 407.6 397.53 402.84 399.45 401.21C407.58 394.28 414.25 383.27 418.14 373.34C424.63 356.83 423.77 340.2 424.13 322.75C424.48 305.76 424.2 288.74 423.55 271.75C423.26 264.11 423.82 256.41 423.43 248.75C422.69 234.12 423.07 219.4 422.93 204.75C422.86 197.57 422.18 190.43 422.31 183.25C422.84 155.4 423.13 128.29 405.31 105.42C378.09 70.51 337.48 74.36 297.75 76.09C287.61 76.54 277.41 75.61 267.25 76.14C264.33 76.29 261.28 75.74 258.39 76.25C257.15 76.47 255.99 77.05 254.75 77.21C249.71 77.86 244.25 76.56 239.25 76.32C235.48 76.13 231.54 76.25 227.75 76.17C224.62 76.11 221.4 76.87 218.25 77.02C213.57 77.26 208.89 76.42 204.25 76.61C202.1 76.7 199.93 77.29 197.75 77.36C193.12 77.49 188.41 76.39 183.75 76.49C181.95 76.53 180.49 77.54 178.75 77.7C175.42 78 171.92 77.14 168.25 77.52C161.99 78.17 155.44 77.13 149.26 78.01C135.65 79.94 121.62 84.94 110.56 93.33C108.54 94.85 107.26 97.04 105.34 98.58C103.46 100.09 101.13 101.46 99.5 103.24C89.51 114.11 81.08 134 80.06 148.75C79.53 156.41 79.95 164.08 79.73 171.75C79.21 189.76 79.62 207.78 79.05 225.75C78.52 242.58 78.25 259.38 78.06 276.25C77.91 289.21 78.09 302.29 77.6 315.25C76.43 346.19 76.57 377.38 100.43 400.34C105.22 404.95 109.14 409.27 114.98 412.42C116.53 413.25 117.9 414.86 119.48 415.75C125.96 419.43 133.51 422.15 140.82 423.85C151.88 426.43 163.47 425.65 174.75 425.81C193.59 426.09 212.42 426.07 231.25 425.97C253.02 425.85 275 425.32 296.75 425.89C315.4 426.37 334.72 427.14 353.25 424.99C359.36 424.29 369.55 422 375 419.21C378.15 417.59 381.04 415.12 384.17 413.41C386.81 411.96 390.91 410.27 392 407.25ZM239.58 136.23C237.04 136.52 234.49 136.81 231.95 137.09C231.46 136.98 230.98 136.86 230.5 136.75C233.53 136.1 236.44 135.69 239.58 136.23ZM271.93 137.01C269.96 136.84 267.98 136.68 266 136.51C266.08 136.34 266.17 136.17 266.25 136C267.92 136 269.58 136 271.25 136C271.48 136.34 271.71 136.67 271.93 137.01ZM222 137.92C222.68 138.01 223.36 138.11 224.03 138.21C220.86 138.82 217.68 139.44 214.5 140.05C214.58 139.87 214.67 139.68 214.75 139.5C216.58 139 218.42 138.5 220.25 138C220.83 137.97 221.42 137.94 222 137.92ZM214.5 140.05C210.12 142.45 204.49 142.99 199.86 145.11C195.44 147.14 191.2 150.38 186.75 152.08C187.92 150.72 189.08 149.36 190.25 148C192.87 148.5 195.78 146.47 197.25 145C198.83 144.32 200.42 143.64 202 142.96C202.33 143.06 202.67 143.15 203 143.25C206.27 141.61 210.82 139.9 214.5 140.05Z" fill="#f653f8" fill-rule="evenodd" stroke="#f653f8" stroke-width="0.25" stroke-linejoin="round"/>
<path d="M394.8 84.5C393.95 84.72 393.1 84.94 392.25 85.16C391.58 84.76 390.92 84.37 390.25 83.97C390 83.4 389.75 82.82 389.5 82.25C387.92 81.12 385.84 80.09 384 78.25C379.71 78.59 381.1 77.48 380.25 76.5C379.54 76.16 370.95 74.38 370.7 73.71C370.55 73.32 371.24 73.08 371.5 72.75C369.29 72.48 369.99 73.15 368.75 71.5C366.92 71.42 365.08 71.33 363.25 71.25C364.17 71.08 365.08 70.92 366 70.75C362.58 70.42 359.17 70.08 355.75 69.75C356.08 69.33 356.42 68.92 356.75 68.5C344.39 67.68 331.5 69.03 318.75 68.75C280.57 67.91 242.3 69.19 204.25 69.19C190.11 69.19 175.93 69.56 161.75 69.3C159.59 69.26 156.29 69.93 154.27 69.39C151.03 68.53 147.64 67.38 144.25 69C144.42 69.53 144.58 70.06 144.75 70.58C140.84 71.73 138.13 69.15 134.25 71C134.83 71.25 135.42 71.5 136 71.75C134.39 72.74 132.63 73.38 131.75 71.5C129.58 72.5 127.42 73.5 125.25 74.5C124.74 75.19 124.88 75.93 124.41 76.53C123.63 77.53 120.99 78.09 119.88 78.75C119.17 78.5 118.46 78.25 117.75 78C116.34 79.74 109.48 81.47 110.58 84.25C108.24 83.91 110.08 86.01 107.74 86.39C106.67 86.56 106.31 86.04 105.25 86.5C105.17 87.08 105.44 88.08 105.26 88.54C104.48 90.47 95.43 91.4 98.65 94.75C95.44 94.85 95.59 95.18 95.69 97.75C94.47 98.76 93.45 97.86 92.27 99.52C90.67 101.75 91.1 105.62 88 105.75C86.91 107.48 84.98 108.83 86.46 110.75C85.39 112.58 84.32 114.42 83.25 116.25C83.42 115 83.58 113.75 83.75 112.5C82.94 114.05 80.24 116.71 82.96 116.75C82.23 118.46 81.49 120.17 80.75 121.88C79.19 120.59 78.92 122.78 78 124.25C78.18 126.5 78.58 127.32 77.75 129.65C74.46 125.84 77.89 141.02 74.5 138.75C73.89 141.81 75 146.15 74.59 147.75C74.38 148.59 73.75 148.97 73.52 149.77C72.61 152.83 73.5 157.53 73.5 160.75C73.5 170.36 74.17 179.64 74.15 189.25C74.09 223.38 73.67 257.22 73.65 291.25C73.64 303.92 73.68 316.58 73.63 329.25C73.61 334.16 74.93 341.57 73.11 346C71.15 344.6 71.93 341.14 71.81 338.75C71.47 331.78 71.82 324.73 71.82 317.75C71.84 292.35 71.83 267.14 71.86 241.75C71.87 235.55 71.86 229.42 71.88 223.25C71.89 220.94 71.1 217.81 73 216.25C70.87 214.48 71.9 205.32 71.86 202.25C71.73 193.75 71.92 185.25 71.85 176.75C71.8 170.99 71.16 164.67 72.03 159C72.27 177.33 72.51 195.67 72.75 214C72.65 191.5 72.55 169 72.45 146.5C74.13 143.19 70.53 138.91 75 134.75C74.98 132.77 73.59 127.07 77 127.25C76.78 124.92 75.96 123.69 78 121.75C77.74 119.65 78.89 117.04 80.75 116C79.89 113.63 83.05 112.58 82.35 110.75C83.82 109.88 84.54 108.31 85.25 106.05C86.22 108.44 85.22 105.65 87 105.75C85.69 103.39 88.39 101.43 90.25 100.5C91.41 99.2 90.51 96.59 93.75 96C95 92.01 99.09 90.56 101.25 87.35C103.65 88.09 104.37 85.61 105.25 83.99C106.62 85.32 112.02 81.18 111.48 79.75C112.99 79.88 117.01 78.66 115.35 77.25C117.03 76.39 117.91 75.69 119.75 76C119.18 74.32 122.91 73.51 124.25 72.72C124.13 75.31 127.41 72.57 127.75 71.16C128.74 71.94 129.81 70.62 132.75 71C130.78 68.02 139.11 69.36 140.23 68.98C141.99 68.4 141.22 67.93 143.75 68C147.26 64.4 152.09 69.47 155.25 66.5C154.33 66.42 153.42 66.33 152.5 66.25C158.08 64.44 169.71 66 176.25 66C193.92 66 211.58 66 229.25 66C234.86 66 250.24 63.03 254.75 66C256.94 64.03 259.41 65.33 261.77 65.98C265.73 67.1 271.61 66 275.75 66C288.92 66 302.08 66 315.25 66C321.84 66 329.37 66.94 335.75 65.55C340.48 64.53 347.4 65.43 352 66.47C353.87 66.89 355.17 66.12 356.25 68C357.75 67.93 359.25 67.87 360.75 67.8C360.42 68.2 360.08 68.6 359.75 69C361.08 68.91 362.42 68.83 363.75 68.74C364.95 69.32 368.52 70.21 368.53 70.22C368.79 70.83 367.46 70.05 368.25 71C371.57 69.9 370.33 71.59 371.38 71.91C372.75 72.32 374.33 71.67 375.75 72.7C376.04 72.91 376.32 73.9 376.38 73.91C377.06 74.02 377.17 73.63 377.75 73.43C378.62 75.25 382.24 76.51 384.75 77.13C385.8 78.73 386.21 78.78 388.12 79.25C387.9 81.06 390.85 82.1 392.25 83.5C393.57 83.88 393.99 83.31 394.8 84.5ZM256.5 66.75C245.67 66.75 234.83 66.75 224 66.75C234.83 66.75 245.67 66.75 256.5 66.75ZM331.5 66.75C306.83 66.75 282.17 66.75 257.5 66.75C282.17 66.75 306.83 66.75 331.5 66.75ZM395.07 86C396.94 86.54 398.71 88.83 400.25 88.61C402 90.01 407.21 94.91 407.25 97C408.61 97.29 409.49 98.29 410 99.75C411.71 100.91 415.99 105.93 415.25 108C419.17 110.66 423.11 121.23 423 125.75C423.7 127.06 424.19 127.4 423.93 129C423.29 128.25 422.66 127.5 422.02 126.75C421.85 125.25 421.67 123.75 421.5 122.25C419.44 123.73 420.25 117.53 418.25 117.08C418.17 115.78 418.59 113.62 416.75 113.89C416.73 112.29 414.74 107.12 413.19 106.22C412.89 106.04 412.58 106.69 412.17 106.09C411.95 105.77 412.1 104.64 412 104.25C410.34 104.6 409.58 103.14 410 101.75C408.34 101.52 407.24 95.53 405.08 97.25C404.18 96.07 401.88 94.79 403.5 93.75C402.43 92.68 401.63 90.99 400.75 92.69C399.76 91.58 398.01 90.51 398.25 89C396.92 87.79 396.1 87.79 395.07 86ZM426.09 138C426.53 138.25 426.98 138.5 427.42 138.75C427.38 140.17 427.33 141.58 427.29 143C427.28 168.5 427.26 194 427.25 219.5C427.48 195.83 427.7 172.17 427.93 148.5C428.8 154.6 428.3 161.09 428.28 167.25C428.24 178.92 428.22 190.58 428.12 202.25C427.82 235.76 428.09 268.89 428.21 302.25C428.26 314.41 428.48 326.59 428.23 338.75C428.17 341.81 429.34 349.21 426.92 351C425.37 346.53 426.7 336.89 426.72 331.75C426.78 318.08 426.68 304.42 426.61 290.75C426.45 257.09 426.27 223.43 426.25 189.75C426.24 179.42 426.07 169.08 426.08 158.75C426.09 153.44 425.39 147.7 426.5 142.75C425.4 141.01 425.27 139.94 426.09 138ZM73.08 348.5C73.32 348.58 73.56 348.67 73.79 348.75C73.78 350.83 73.76 352.92 73.75 355C74.05 355.75 74.35 356.5 74.65 357.25C74.39 357.5 74.13 357.75 73.87 358C73.54 357.58 73.21 357.17 72.88 356.75C73 354.85 72.89 350.46 72.19 349.25C72.49 349 72.78 348.75 73.08 348.5ZM151 428.52C217 428.54 283 428.56 349 428.58C346.95 430.42 341.07 429.49 338.25 429.51C328.58 429.57 318.92 429.49 309.25 429.52C271.08 429.64 232.92 429.55 194.75 429.55C184.08 429.55 173.42 429.62 162.75 429.56C159.75 429.55 153.13 430.52 151 428.52Z" fill="#f6a7f8" fill-rule="evenodd" stroke="#f6a7f8" stroke-width="0.25" stroke-linejoin="round"/>
<path d="M256.5 66.75C245.67 66.75 234.83 66.75 224 66.75C234.83 66.75 245.67 66.75 256.5 66.75ZM331.5 66.75C306.83 66.75 282.17 66.75 257.5 66.75C282.17 66.75 306.83 66.75 331.5 66.75ZM427.29 143C427.36 143.92 427.43 144.83 427.5 145.75C427.64 146.67 427.79 147.58 427.93 148.5C427.7 172.17 427.48 195.83 427.25 219.5C427.26 194 427.28 168.5 427.29 143ZM72.45 146.5C72.55 169 72.65 191.5 72.75 214C72.51 195.67 72.27 177.33 72.03 159C72.17 154.83 72.31 150.67 72.45 146.5Z" fill="#ffffff" fill-rule="evenodd" stroke="#ffffff" stroke-width="0.25" stroke-linejoin="round"/>
</svg>